# xmcd
#
# Track frame offsets: 
#        150
#        17482
#        33515
#        51493
#        68536
#        85865
#        104581
#        124360
#        131314
#        151916
#
# Disc length: 2242 seconds
#
# Revision: 0
# Processed by: cddbd v1.5.2PL0 Copyright (c) Steve Scherf et al.
# Submitted via: ExactAudioCopy v0.95b3
#
DISCID=7e08c00a
DTITLE=Ivan Rosenberg - Clawhammer and Dobro
DYEAR=2006
DGENRE=Bluegrass
TTITLE0=Hamish's Morphine Pill
TTITLE1=Quackalactic Breakdown
TTITLE2=The Creptid Mule
TTITLE3=Skunk Ate the Mothballs
TTITLE4=Poor Ellen Smith
TTITLE5=Big Arm, Montana
TTITLE6=Rope-A-Dope
TTITLE7=Terrapenne
TTITLE8=Fly Up the River
TTITLE9=Pig Shack
EXTD=
EXTT0=
EXTT1=
EXTT2=
EXTT3=
EXTT4=
EXTT5=
EXTT6=
EXTT7=
EXTT8=
EXTT9=
PLAYORDER=
